<?xml version="1.0" encoding="UTF-8" standalone="no"?>
<svg
   xmlns:dc="http://purl.org/dc/elements/1.1/"
   xmlns:cc="http://creativecommons.org/ns#"
   xmlns:rdf="http://www.w3.org/1999/02/22-rdf-syntax-ns#"
   xmlns:svg="http://www.w3.org/2000/svg"
   xmlns="http://www.w3.org/2000/svg"
   viewBox="0 0 33.797501 33.797501"
   height="337.97501"
   width="337.97501"
   xml:space="preserve"
   version="1.1"
   id="svg3282"><defs
     id="defs3286"><clipPath
       id="clipPath3298"
       clipPathUnits="userSpaceOnUse"><path
         id="path3300"
         d="M 0,0 612,0 612,792 0,792 0,0 Z" /></clipPath></defs><g
     transform="matrix(1.25,0,0,-1.25,-365.6015,142.82488)"
     id="g3290"><g
       id="g3294"><g
         clip-path="url(#clipPath3298)"
         id="g3296"><g
           style="fill:#55b0e6;fill-opacity:1"
           transform="translate(301.5271,106.2638)"
           id="g3302"><path
             id="path3304"
             style="fill:#55b0e6;fill-opacity:1;fill-rule:nonzero;stroke:none"
             d="m 0,0 4.261,0 c 3.945,0 6.233,-2.272 6.233,-5.46 l 0,-0.031 c 0,-3.188 -2.32,-5.555 -6.296,-5.555 L 0,-11.046 0,0 Z m 4.308,-8.332 c 1.83,0 3.045,1.01 3.045,2.793 l 0,0.032 c 0,1.768 -1.215,2.793 -3.045,2.793 l -1.246,0 0,-5.618 1.246,0 z" /></g><g
           style="fill:#55b0e6;fill-opacity:1"
           transform="translate(306.0002,87.2219)"
           id="g3306"><path
             id="path3308"
             style="fill:#55b0e6;fill-opacity:1;fill-rule:nonzero;stroke:none"
             d="m 0,0 c -7.455,0 -13.519,6.065 -13.519,13.519 0,7.454 6.064,13.519 13.519,13.519 7.454,0 13.519,-6.065 13.519,-13.519 C 13.519,6.065 7.454,0 0,0 m 0,23.565 c -5.54,0 -10.047,-4.507 -10.047,-10.046 0,-5.54 4.507,-10.046 10.047,-10.046 5.539,0 10.046,4.506 10.046,10.046 0,5.539 -4.507,10.046 -10.046,10.046" /></g></g></g></g></svg>