<?xml version="1.0" encoding="UTF-8"?>
<svg width="312px" height="303px" viewBox="0 0 312 303" version="1.1" xmlns="http://www.w3.org/2000/svg" xmlns:xlink="http://www.w3.org/1999/xlink">
    <!-- Generator: Sketch 41.1 (35376) - http://www.bohemiancoding.com/sketch -->
    <title>Page 1</title>
    <desc>Created with Sketch.</desc>
    <defs></defs>
    <g id="Page-1" stroke="none" stroke-width="1" fill="none" fill-rule="evenodd">
        <g transform="translate(2.000000, 2.000000)">
            <g id="Group-6" transform="translate(10.000000, 10.000000)">
                <path d="M264.25,144 C264.25,210.412 210.412,264.25 144,264.25 C77.588,264.25 23.75,210.412 23.75,144 C23.75,77.588 77.588,23.75 144,23.75 C210.412,23.75 264.25,77.588 264.25,144" id="Fill-2"></path>
                <path d="M288,144 C288,223.529 223.529,288 144,288 C64.471,288 0,223.529 0,144 C0,64.471 64.471,0 144,0 C223.529,0 288,64.471 288,144 Z" id="Stroke-4" stroke="#374F84" stroke-width="4"></path>
            </g>
            <g id="g3302" transform="translate(50.879180, 51.144440)" fill="#E8EDF1">
                <path d="M69.3195545,145.269464 L101.735679,145.269464 C131.747792,145.269464 149.154056,127.984921 149.154056,103.731787 L149.154056,103.49595 C149.154056,79.2428159 131.504347,61.2355484 101.256398,61.2355484 L69.3195545,61.2355484 L69.3195545,145.269464 Z M102.093238,81.8826646 C116.015206,81.8826646 125.258481,89.566374 125.258481,103.130784 L125.258481,103.374228 C125.258481,116.824523 116.015206,124.622347 102.093238,124.622347 L92.614127,124.622347 L92.614127,81.8826646 L102.093238,81.8826646 Z" id="path3304"></path>
                <path d="M103.349258,0.405674988 C46.6343534,0.405674988 0.501666322,46.5459697 0.501666322,103.253267 C0.501666322,159.960564 46.6343534,206.100858 103.349258,206.100858 C160.056555,206.100858 206.19685,159.960564 206.19685,103.253267 C206.19685,46.5459697 160.056555,0.405674988 103.349258,0.405674988 M103.349258,179.679549 C61.2029707,179.679549 26.9153684,145.391946 26.9153684,103.253267 C26.9153684,61.1069794 61.2029707,26.8269847 103.349258,26.8269847 C145.487938,26.8269847 179.77554,61.1069794 179.77554,103.253267 C179.77554,145.391946 145.487938,179.679549 103.349258,179.679549" id="path3308"></path>
            </g>
            <g id="Group-65">
                <path d="M240.25,154 C240.25,233.529 154,298 154,298 C154,298 67.75,233.529 67.75,154 C67.75,74.471 154,10 154,10 C154,10 240.25,74.471 240.25,154 Z" id="Stroke-7" stroke="#374F84" stroke-width="4"></path>
                <path d="M154,10 L154,298" id="Stroke-9" stroke="#374F84" stroke-width="4"></path>
                <path d="M10,154 L298,154" id="Stroke-11" stroke="#374F84" stroke-width="4"></path>
                <path d="M24.5,90 L283.5,90" id="Stroke-13" stroke="#374F84" stroke-width="4"></path>
                <path d="M24.5,218 L283.5,218" id="Stroke-15" stroke="#374F84" stroke-width="4"></path>
                <path d="M19.25,154 C19.25,159.108 15.108,163.25 10,163.25 C4.892,163.25 0.75,159.108 0.75,154 C0.75,148.892 4.892,144.75 10,144.75 C15.108,144.75 19.25,148.892 19.25,154" id="Fill-17" fill="#E53333"></path>
                <path d="M19.25,154 C19.25,159.108 15.108,163.25 10,163.25 C4.892,163.25 0.75,159.108 0.75,154 C0.75,148.892 4.892,144.75 10,144.75 C15.108,144.75 19.25,148.892 19.25,154 Z" id="Stroke-19" stroke="#374F84" stroke-width="4"></path>
                <path d="M307.25,154 C307.25,159.108 303.108,163.25 298,163.25 C292.892,163.25 288.75,159.108 288.75,154 C288.75,148.892 292.892,144.75 298,144.75 C303.108,144.75 307.25,148.892 307.25,154" id="Fill-21" fill="#E53333"></path>
                <path d="M307.25,154 C307.25,159.108 303.108,163.25 298,163.25 C292.892,163.25 288.75,159.108 288.75,154 C288.75,148.892 292.892,144.75 298,144.75 C303.108,144.75 307.25,148.892 307.25,154 Z" id="Stroke-23" stroke="#374F84" stroke-width="4"></path>
                <path d="M243.249,33.75 C243.249,38.858 239.107,43 233.999,43 C228.891,43 224.749,38.858 224.749,33.75 C224.749,28.642 228.891,24.5 233.999,24.5 C239.107,24.5 243.249,28.642 243.249,33.75" id="Fill-25" fill="#E8EDF1"></path>
                <path d="M243.249,33.75 C243.249,38.858 239.107,43 233.999,43 C228.891,43 224.749,38.858 224.749,33.75 C224.749,28.642 228.891,24.5 233.999,24.5 C239.107,24.5 243.249,28.642 243.249,33.75 Z" id="Stroke-27" stroke="#374F84" stroke-width="4"></path>
                <path d="M163.25,10 C163.25,15.108 159.108,19.25 154,19.25 C148.892,19.25 144.75,15.108 144.75,10 C144.75,4.892 148.892,0.75 154,0.75 C159.108,0.75 163.25,4.892 163.25,10" id="Fill-29" fill="#E53333"></path>
                <path d="M163.25,10 C163.25,15.108 159.108,19.25 154,19.25 C148.892,19.25 144.75,15.108 144.75,10 C144.75,4.892 148.892,0.75 154,0.75 C159.108,0.75 163.25,4.892 163.25,10 Z" id="Stroke-31" stroke="#374F84" stroke-width="4"></path>
                <path d="M94.75,90 C94.75,95.108 90.608,99.25 85.5,99.25 C80.392,99.25 76.25,95.108 76.25,90 C76.25,84.892 80.392,80.75 85.5,80.75 C90.608,80.75 94.75,84.892 94.75,90" id="Fill-33" fill="#55B0E6"></path>
                <path d="M94.75,90 C94.75,95.108 90.608,99.25 85.5,99.25 C80.392,99.25 76.25,95.108 76.25,90 C76.25,84.892 80.392,80.75 85.5,80.75 C90.608,80.75 94.75,84.892 94.75,90 Z" id="Stroke-35" stroke="#374F84" stroke-width="4"></path>
                <path d="M83.25,33.75 C83.25,38.858 79.108,43 74,43 C68.892,43 64.75,38.858 64.75,33.75 C64.75,28.642 68.892,24.5 74,24.5 C79.108,24.5 83.25,28.642 83.25,33.75" id="Fill-37" fill="#E8EDF1"></path>
                <path d="M83.25,33.75 C83.25,38.858 79.108,43 74,43 C68.892,43 64.75,38.858 64.75,33.75 C64.75,28.642 68.892,24.5 74,24.5 C79.108,24.5 83.25,28.642 83.25,33.75 Z" id="Stroke-39" stroke="#374F84" stroke-width="4"></path>
                <path d="M83.25,274.25 C83.25,279.359 79.108,283.5 74,283.5 C68.892,283.5 64.75,279.359 64.75,274.25 C64.75,269.143 68.892,265 74,265 C79.108,265 83.25,269.143 83.25,274.25" id="Fill-41" fill="#E8EDF1"></path>
                <path d="M83.25,274.25 C83.25,279.359 79.108,283.5 74,283.5 C68.892,283.5 64.75,279.359 64.75,274.25 C64.75,269.143 68.892,265 74,265 C79.108,265 83.25,269.143 83.25,274.25 Z" id="Stroke-43" stroke="#374F84" stroke-width="4"></path>
                <path d="M243.25,274.25 C243.25,279.359 239.107,283.5 234,283.5 C228.891,283.5 224.75,279.359 224.75,274.25 C224.75,269.143 228.891,265 234,265 C239.107,265 243.25,269.143 243.25,274.25" id="Fill-45" fill="#E8EDF1"></path>
                <path d="M243.25,274.25 C243.25,279.359 239.107,283.5 234,283.5 C228.891,283.5 224.75,279.359 224.75,274.25 C224.75,269.143 228.891,265 234,265 C239.107,265 243.25,269.143 243.25,274.25 Z" id="Stroke-47" stroke="#374F84" stroke-width="4"></path>
                <path d="M231.75,90 C231.75,95.108 227.608,99.25 222.5,99.25 C217.392,99.25 213.25,95.108 213.25,90 C213.25,84.892 217.392,80.75 222.5,80.75 C227.608,80.75 231.75,84.892 231.75,90" id="Fill-49" fill="#55B0E6"></path>
                <path d="M231.75,90 C231.75,95.108 227.608,99.25 222.5,99.25 C217.392,99.25 213.25,95.108 213.25,90 C213.25,84.892 217.392,80.75 222.5,80.75 C227.608,80.75 231.75,84.892 231.75,90 Z" id="Stroke-51" stroke="#374F84" stroke-width="4"></path>
                <path d="M163.25,154 C163.25,159.108 159.108,163.25 154,163.25 C148.892,163.25 144.75,159.108 144.75,154 C144.75,148.892 148.892,144.75 154,144.75 C159.108,144.75 163.25,148.892 163.25,154" id="Fill-53" fill="#E53333"></path>
                <path d="M163.25,154 C163.25,159.108 159.108,163.25 154,163.25 C148.892,163.25 144.75,159.108 144.75,154 C144.75,148.892 148.892,144.75 154,144.75 C159.108,144.75 163.25,148.892 163.25,154 Z" id="Stroke-55" stroke="#374F84" stroke-width="4"></path>
                <path d="M231.75,218 C231.75,223.108 227.608,227.25 222.5,227.25 C217.392,227.25 213.25,223.108 213.25,218 C213.25,212.892 217.392,208.75 222.5,208.75 C227.608,208.75 231.75,212.892 231.75,218" id="Fill-57" fill="#55B0E6"></path>
                <path d="M231.75,218 C231.75,223.108 227.608,227.25 222.5,227.25 C217.392,227.25 213.25,223.108 213.25,218 C213.25,212.892 217.392,208.75 222.5,208.75 C227.608,208.75 231.75,212.892 231.75,218 Z" id="Stroke-59" stroke="#374F84" stroke-width="4"></path>
                <path d="M94.75,218 C94.75,223.108 90.608,227.25 85.5,227.25 C80.392,227.25 76.25,223.108 76.25,218 C76.25,212.892 80.392,208.75 85.5,208.75 C90.608,208.75 94.75,212.892 94.75,218" id="Fill-61" fill="#55B0E6"></path>
                <path d="M94.75,218 C94.75,223.108 90.608,227.25 85.5,227.25 C80.392,227.25 76.25,223.108 76.25,218 C76.25,212.892 80.392,208.75 85.5,208.75 C90.608,208.75 94.75,212.892 94.75,218 Z" id="Stroke-63" stroke="#374F84" stroke-width="4"></path>
            </g>
        </g>
    </g>
</svg>