<?xml version="1.0" encoding="UTF-8"?>
<svg width="324px" height="320px" viewBox="0 0 324 320" version="1.1" xmlns="http://www.w3.org/2000/svg" xmlns:xlink="http://www.w3.org/1999/xlink">
    <!-- Generator: Sketch 41.1 (35376) - http://www.bohemiancoding.com/sketch -->
    <title>Page 1</title>
    <desc>Created with Sketch.</desc>
    <defs>
        <path d="M0.1127,16.0984519 C7.96058137,21.7473595 17.5911567,25.0747229 27.9987,25.075 L27.9987,0.0061 L0.1127,0.0061 L0.1127,16.0984519 L0.1127,16.0984519 Z" id="path-1"></path>
        <path d="M1,25.075 C11.4077513,25.075 21.0383996,21.7477802 28.8863,16.0989242 L28.8863,0.0061 L0.9993,0.0061 L0.9993,25.075 L1,25.075 Z" id="path-3"></path>
    </defs>
    <g id="Page-1" stroke="none" stroke-width="1" fill="none" fill-rule="evenodd">
        <g transform="translate(1.000000, 0.000000)">
            <g id="Group-21">
                <path d="M96.8652,320.001 C96.8652,320.001 128.8652,320.001 128.8652,288.001 L321.0002,288.001 C321.0002,288.001 320.8692,320.001 289.0002,320.001 L96.8652,320.001 Z" id="Fill-4" fill="#BAC4C6"></path>
                <path d="M257,287.999 L257,64 L257,32 C257,32 256.667,0 225,0 L65.199,0 L65.199,32 L64.865,32 L64.865,287.999 C64.865,287.999 64.996,319.999 96.865,319.999 L289,319.999 C289,319.999 257,319.999 257,287.999" id="Fill-6" fill="#E8EDF1"></path>
                <path d="M225,0 C225,0 193,0 193,32 L0.865,32 C0.865,32 0.996,0 32.865,0 L225,0 Z" id="Fill-8" fill="#BAC4C6"></path>
                <polygon id="Fill-10" fill="#FFFFFF" points="78 272 244 272 244 53.523 78 53.523"></polygon>
                <path d="M115.5996,77.375 L128.1306,77.375" id="Stroke-12" stroke="#30241C" stroke-width="4"></path>
                <path d="M129.9326,104.9111 L192.6666,104.9111" id="Stroke-13" stroke="#30241C" stroke-width="4"></path>
                <path d="M116.666,127.042 L208.668,127.042" id="Stroke-14" stroke="#30241C" stroke-width="4"></path>
                <path d="M116.666,143.042 L208.668,143.042" id="Stroke-15" stroke="#30241C" stroke-width="4"></path>
                <path d="M116.666,159.042 L208.668,159.042" id="Stroke-16" stroke="#30241C" stroke-width="4"></path>
                <path d="M116.666,174.792 L208.668,174.792" id="Stroke-17" stroke="#30241C" stroke-width="4"></path>
                <path d="M320.7871,83.2871 C320.7871,56.8951 299.3911,35.5001 273.0001,35.5001 C246.6071,35.5001 225.2121,56.8951 225.2121,83.2871 C225.2121,109.6801 246.6071,131.0751 273.0001,131.0751 C299.3911,131.0751 320.7871,109.6801 320.7871,83.2871" id="Fill-20" fill="#FFFFFF"></path>
            </g>
            <g id="Group-42" transform="translate(245.000000, 53.000000)">
                <g id="Group-24" transform="translate(0.000000, 53.000000)">
                    <mask id="mask-2" fill="white">
                        <use xlink:href="#path-1"></use>
                    </mask>
                    <g id="Clip-23"></g>
                    <polygon id="Fill-22" fill="#E53333" mask="url(#mask-2)" points="22.6367 3.4941 27.9987 25.0751 0.1127 25.0751 0.6547 7.9801 16.7467 0.0061"></polygon>
                </g>
                <path d="M11.6895,18.7793 C11.6895,18.7793 26.6455,20.0083 34.3795,13.4073 L36.5185,6.5503 C36.5185,6.5503 37.5135,3.6863 30.7185,1.2113 C22.0765,-1.9387 7.1525,6.4023 11.6895,18.7793 Z" id="Stroke-25" stroke="#30241C" stroke-width="4" stroke-linecap="round" stroke-linejoin="round"></path>
                <path d="M34.3799,13.4072 C34.3799,13.4072 37.8879,19.1822 44.2819,18.6672 C44.2819,18.6672 47.3529,7.8382 36.5339,6.4962 L34.3799,13.4072 Z" id="Stroke-27" stroke="#30241C" stroke-width="4" stroke-linecap="round" stroke-linejoin="round"></path>
                <path d="M44.3076,18.7793 C44.3076,18.7793 43.8696,27.4083 41.7316,34.8343 C39.5926,42.2593 27.9986,44.7353 27.9986,44.7353 C27.9986,44.7353 16.4056,42.2593 14.2666,34.8343 C12.1286,27.4083 11.6896,18.7793 11.6896,18.7793" id="Stroke-29" stroke="#30241C" stroke-width="4" stroke-linecap="round" stroke-linejoin="round"></path>
                <path d="M11.6895,20.7559 C11.6895,20.7559 9.3945,19.9119 8.1585,22.9219 C6.3785,27.2529 13.3425,31.1049 13.3425,31.1049" id="Stroke-31" stroke="#30241C" stroke-width="4" stroke-linecap="round" stroke-linejoin="round"></path>
                <path d="M44.3613,20.7559 C44.3613,20.7559 46.6583,19.9119 47.8933,22.9219 C49.6733,27.2529 42.7093,31.1049 42.7093,31.1049" id="Stroke-33" stroke="#30241C" stroke-width="4" stroke-linecap="round" stroke-linejoin="round"></path>
                <polyline id="Stroke-35" stroke="#30241C" stroke-width="4" stroke-linecap="round" stroke-linejoin="round" points="19.6719 41.3066 19.2199 49.5316 27.9989 52.7796 25.6409 58.2716 15.5829 52.3166"></polyline>
                <g id="Group-39" transform="translate(27.000000, 53.000000)">
                    <mask id="mask-4" fill="white">
                        <use xlink:href="#path-3"></use>
                    </mask>
                    <g id="Clip-38"></g>
                    <polygon id="Fill-37" fill="#E53333" mask="url(#mask-4)" points="6.3613 3.4941 0.9993 25.0751 28.8863 25.0751 28.3443 7.9801 12.2503 0.0061"></polygon>
                </g>
                <polyline id="Stroke-40" stroke="#30241C" stroke-width="4" stroke-linecap="round" stroke-linejoin="round" points="36.3262 41.3066 36.7782 49.5316 27.9992 52.7796 30.3582 58.2716 40.4152 52.3166"></polyline>
            </g>
            <g id="Group-47" transform="translate(25.000000, 35.000000)">
                <path d="M295.7871,48.2871 C295.7871,21.8951 274.3911,0.5001 248.0001,0.5001 C221.6071,0.5001 200.2121,21.8951 200.2121,48.2871 C200.2121,74.6801 221.6071,96.0751 248.0001,96.0751 C274.3911,96.0751 295.7871,74.6801 295.7871,48.2871 Z" id="Stroke-43" stroke="#30241C" stroke-width="4"></path>
                <path d="M79.873,205.127 C79.873,183.106 62.021,165.253 40,165.253 C17.978,165.253 0.127,183.106 0.127,205.127 C0.127,227.148 17.978,245 40,245 C62.021,245 79.873,227.148 79.873,205.127" id="Fill-45" fill="#FFFFFF"></path>
            </g>
            <g id="Group-70" transform="translate(40.000000, 211.000000)">
                <polygon id="Fill-48" fill="#2F4F84" points="20.2695 49.959 24.9995 69 0.3965 69 0.8745 53.918 15.0745 46.882"></polygon>
                <path d="M10.6113,16.6846 C10.6113,16.6846 23.8063,17.7686 30.6313,11.9456 L32.5173,5.8956 C32.5173,5.8956 33.3943,3.3686 27.4003,1.1846 C22.8943,-0.4574 15.7583,-0.0074 12.0693,4.0716" id="Stroke-50" stroke="#30241C" stroke-width="4" stroke-linecap="round" stroke-linejoin="round"></path>
                <path d="M30.6309,11.9453 C30.6309,11.9453 36.6819,11.2163 39.3669,16.5863 C39.3669,16.5863 42.0739,7.0313 32.5309,5.8483 L30.6309,11.9453 Z" id="Stroke-52" stroke="#30241C" stroke-width="4" stroke-linecap="round" stroke-linejoin="round"></path>
                <path d="M39.3896,16.6846 C39.3896,16.6846 39.0016,24.2976 37.1156,30.8506 C35.2296,37.4016 24.9996,39.5846 24.9996,39.5846 C24.9996,39.5846 14.7716,37.4016 12.8846,30.8506 C10.9976,24.2976 10.6116,16.6846 10.6116,16.6846" id="Stroke-54" stroke="#30241C" stroke-width="4" stroke-linecap="round" stroke-linejoin="round"></path>
                <path d="M10.6113,18.4287 C10.6113,18.4287 8.5863,17.6847 7.4943,20.3397 C5.9253,24.1617 12.0693,27.5587 12.0693,27.5587" id="Stroke-56" stroke="#30241C" stroke-width="4" stroke-linecap="round" stroke-linejoin="round"></path>
                <path d="M39.4365,18.4287 C39.4365,18.4287 41.4625,17.6847 42.5525,20.3397 C44.1235,24.1617 37.9785,27.5587 37.9785,27.5587" id="Stroke-58" stroke="#30241C" stroke-width="4" stroke-linecap="round" stroke-linejoin="round"></path>
                <polyline id="Stroke-60" stroke="#30241C" stroke-width="4" stroke-linecap="round" stroke-linejoin="round" points="17.6533 36.5615 17.2553 43.8175 25.0003 46.6835 22.9183 51.5285 14.0473 46.2735"></polyline>
                <polygon id="Fill-62" fill="#2F4F84" points="29.7314 49.959 25.0004 69 49.6034 69 49.1254 53.918 34.9274 46.882"></polygon>
                <polyline id="Stroke-64" stroke="#30241C" stroke-width="4" stroke-linecap="round" stroke-linejoin="round" points="32.3477 36.5615 32.7467 43.8175 24.9997 46.6835 27.0817 51.5285 35.9537 46.2735"></polyline>
                <path d="M17.3691,41.7432 L5.0381,41.7432 C5.0381,41.7432 3.8101,38.4682 3.6051,30.6192 C3.4001,22.7712 4.5041,11.4242 12.2321,3.8992" id="Stroke-66" stroke="#30241C" stroke-width="4" stroke-linecap="round" stroke-linejoin="round"></path>
                <path d="M33.501,41.7432 L41.254,41.7432 C41.254,41.7432 42.025,39.6822 42.154,34.7502 C42.225,32.0442 42.049,28.6782 41.072,25.4082" id="Stroke-68" stroke="#30241C" stroke-width="4" stroke-linecap="round" stroke-linejoin="round"></path>
            </g>
            <g id="Group-89" transform="translate(1.000000, 95.000000)" stroke="#30241C" stroke-width="4">
                <path d="M103.873,145.127 C103.873,123.106 86.021,105.253 64,105.253 C41.978,105.253 24.127,123.106 24.127,145.127 C24.127,167.148 41.978,185 64,185 C86.021,185 103.873,167.148 103.873,145.127 Z" id="Stroke-71"></path>
                <path d="M32,64.75 C32,55.914 24.836,48.75 16,48.75 C7.164,48.75 0,55.914 0,64.75 C0,73.587 7.164,80.75 16,80.75 C24.836,80.75 32,73.587 32,64.75 Z" id="Stroke-73"></path>
                <path d="M48,8.333 C48,3.914 44.418,0.333 40,0.333 C35.582,0.333 32,3.914 32,8.333 C32,12.752 35.582,16.333 40,16.333 C44.418,16.333 48,12.752 48,8.333 Z" id="Stroke-75"></path>
                <path d="M320,81 C320,89.837 312.837,97 304,97 C295.163,97 288,89.837 288,81 C288,72.163 295.163,65 304,65 C312.837,65 320,72.163 320,81 Z" id="Stroke-77"></path>
                <path d="M272,137 C272,141.418 275.582,145 280,145 C284.418,145 288,141.418 288,137 C288,132.582 284.418,129 280,129 C275.582,129 272,132.582 272,137 Z" id="Stroke-79"></path>
                <path d="M41.9023,111.9336 L23.2563,79.0086" id="Stroke-81"></path>
                <path d="M16,48.75 L36.134,15.336" id="Stroke-83"></path>
                <path d="M290.165,32.498 L302.493,65.072" id="Stroke-85"></path>
                <path d="M299.6924,96.4082 L283.0794,129.6162" id="Stroke-87"></path>
            </g>
            <g id="g3302" transform="translate(164.000000, 197.000000)" fill="#55B0E6">
                <path d="M20,43 L29.7449971,43 C38.7672956,43 44,37.8578671 44,30.6425856 L44,30.5724244 C44,23.3571429 38.6941109,18 29.6009148,18 L20,18 L20,43 Z M29.8524871,24.142495 C34.0377358,24.142495 36.8164666,26.4283904 36.8164666,30.4637878 L36.8164666,30.5362122 C36.8164666,34.5376607 34.0377358,36.857505 29.8524871,36.857505 L27.0028588,36.857505 L27.0028588,24.142495 L29.8524871,24.142495 Z" id="path3304"></path>
                <path d="M30.5,0 C13.6808936,0 0,13.6831496 0,30.5 C0,47.3168504 13.6808936,61 30.5,61 C47.3168504,61 61,47.3168504 61,30.5 C61,13.6831496 47.3168504,0 30.5,0 M30.5,53.1646202 C18.0012945,53.1646202 7.83312375,42.9964494 7.83312375,30.5 C7.83312375,18.0012945 18.0012945,7.83537984 30.5,7.83537984 C42.9964494,7.83537984 53.1646202,18.0012945 53.1646202,30.5 C53.1646202,42.9964494 42.9964494,53.1646202 30.5,53.1646202" id="path3308"></path>
            </g>
        </g>
    </g>
</svg>