<?xml version="1.0" encoding="UTF-8"?>
<svg width="67px" height="92px" viewBox="0 0 67 92" version="1.1" xmlns="http://www.w3.org/2000/svg" xmlns:xlink="http://www.w3.org/1999/xlink">
    <!-- Generator: Sketch 41.1 (35376) - http://www.bohemiancoding.com/sketch -->
    <title>Page 1</title>
    <desc>Created with Sketch.</desc>
    <defs>
        <polygon id="path-1" points="16.283604 0 0.31052123 0 0.31052123 27.1857 16.283604 27.1857 16.283604 0"></polygon>
    </defs>
    <g id="Page-1" stroke="none" stroke-width="1" fill="none" fill-rule="evenodd">
        <g>
            <path d="M8.4109,21.5991 C7.9799,21.5991 7.5459,21.6521 7.1189,21.7561 C5.7119,22.0991 4.5209,22.9731 3.7659,24.2131 C3.0129,25.4541 2.7859,26.9111 3.1309,28.3161 C3.7219,30.7481 5.8829,32.4471 8.3859,32.4471 C8.8249,32.4471 9.2629,32.3931 9.6889,32.2891 C11.0979,31.9451 12.2869,31.0751 13.0389,29.8381 C13.7909,28.6001 14.0159,27.1431 13.6729,25.7381 C13.0779,23.3011 10.9149,21.5991 8.4109,21.5991 M8.3899,34.9211 C4.7439,34.9211 1.5939,32.4471 0.7289,28.9051 C0.2279,26.8581 0.5559,24.7361 1.6529,22.9301 C2.7499,21.1241 4.4819,19.8531 6.5309,19.3521 C7.1429,19.2021 7.7759,19.1251 8.4099,19.1251 C12.0569,19.1251 15.2089,21.6021 16.0759,25.1501 C16.5779,27.1971 16.2499,29.3181 15.1519,31.1231 C14.0579,32.9231 12.3269,34.1911 10.2789,34.6931 C9.6599,34.8441 9.0239,34.9211 8.3899,34.9211" id="Fill-1" fill="#55B0E6"></path>
            <path d="M8.3865,31.9468 C6.1145,31.9468 4.1535,30.4058 3.6165,28.1988 C3.3035,26.9218 3.5095,25.5988 4.1935,24.4728 C4.8785,23.3458 5.9595,22.5538 7.2385,22.2408 C7.6255,22.1468 8.0195,22.0988 8.4105,22.0988 C10.6835,22.0988 12.6475,23.6438 13.1875,25.8558 C13.4985,27.1328 13.2945,28.4548 12.6125,29.5788 C11.9295,30.7008 10.8485,31.4908 9.5705,31.8038 C9.1815,31.8988 8.7835,31.9468 8.3885,31.9468 L8.3865,31.9468 Z M8.4095,18.6248 C7.7355,18.6248 7.0635,18.7068 6.4105,18.8668 C4.2345,19.3998 2.3925,20.7508 1.2255,22.6708 C0.0595,24.5908 -0.2895,26.8468 0.2435,29.0238 C1.1625,32.7898 4.5125,35.4208 8.3895,35.4208 C9.0635,35.4208 9.7385,35.3398 10.3975,35.1778 C12.5745,34.6448 14.4155,33.2978 15.5795,31.3838 C16.7465,29.4638 17.0945,27.2078 16.5605,25.0308 C15.6395,21.2598 12.2875,18.6248 8.4095,18.6248 L8.4095,18.6248 Z M8.3865,32.9468 L8.3885,32.9468 C8.8625,32.9468 9.3415,32.8888 9.8075,32.7748 C11.3435,32.3998 12.6445,31.4488 13.4665,30.0978 C14.2875,28.7448 14.5335,27.1558 14.1585,25.6188 C13.5095,22.9578 11.1445,21.0988 8.4105,21.0988 C7.9385,21.0988 7.4635,21.1568 7.0005,21.2698 C3.8215,22.0468 1.8675,25.2608 2.6445,28.4348 C3.2905,31.0918 5.6515,32.9468 8.3865,32.9468 L8.3865,32.9468 Z M8.4095,19.6248 C11.8255,19.6248 14.7775,21.9448 15.5895,25.2688 C16.0605,27.1888 15.7515,29.1748 14.7245,30.8638 C13.6985,32.5508 12.0785,33.7368 10.1595,34.2068 C9.5785,34.3488 8.9835,34.4208 8.3895,34.4208 C4.9745,34.4208 2.0245,32.1038 1.2145,28.7858 C0.2435,24.8218 2.6825,20.8088 6.6495,19.8378 C7.2265,19.6958 7.8195,19.6248 8.4095,19.6248 L8.4095,19.6248 Z" id="Fill-3" fill="#55B0E6"></path>
            <path d="M54.2767,23.315 C54.2237,23.315 54.1707,23.307 54.1167,23.289 L52.7217,22.818 C52.5967,22.775 52.4927,22.685 52.4337,22.566 C52.3757,22.447 52.3657,22.31 52.4087,22.184 C53.7117,18.33 51.6357,14.134 47.7837,12.831 C47.5217,12.742 47.3817,12.459 47.4697,12.197 L47.9407,10.801 C47.9827,10.675 48.0737,10.572 48.1927,10.513 C48.2617,10.479 48.3387,10.461 48.4147,10.461 C48.4677,10.461 48.5227,10.47 48.5747,10.487 C53.7207,12.229 56.4917,17.831 54.7507,22.975 C54.6797,23.184 54.4857,23.315 54.2767,23.315" id="Fill-5" fill="#55B0E6"></path>
            <path d="M48.4144,9.961 C48.2624,9.961 48.1104,9.996 47.9714,10.065 C47.7334,10.183 47.5524,10.39 47.4674,10.641 L46.9964,12.037 C46.8194,12.561 47.1014,13.128 47.6234,13.304 C51.2154,14.52 53.1484,18.431 51.9354,22.024 C51.8504,22.275 51.8674,22.55 51.9854,22.788 C52.1024,23.025 52.3104,23.207 52.5614,23.292 L53.9574,23.763 C54.0624,23.798 54.1714,23.815 54.2764,23.815 C54.6934,23.815 55.0834,23.552 55.2244,23.135 C57.0534,17.731 54.1424,11.844 48.7354,10.014 C48.6314,9.979 48.5224,9.961 48.4144,9.961 M48.4144,10.961 C53.2984,12.614 55.9294,17.932 54.2764,22.815 L52.8824,22.344 C54.2724,18.229 52.0584,13.749 47.9434,12.357 L48.4144,10.961" id="Fill-7" fill="#55B0E6"></path>
            <path d="M59.1859,24.979 C59.1319,24.979 59.0779,24.97 59.0259,24.953 L57.6299,24.479 C57.3689,24.391 57.2279,24.107 57.3169,23.845 C58.3939,20.667 58.1679,17.26 56.6819,14.252 C55.1959,11.246 52.6249,8.997 49.4439,7.919 C49.1819,7.831 49.0409,7.547 49.1299,7.286 L49.6019,5.89 C49.6439,5.764 49.7349,5.661 49.8539,5.602 C49.9229,5.567 49.9989,5.55 50.0759,5.55 C50.1289,5.55 50.1839,5.559 50.2359,5.576 C54.0419,6.865 57.1189,9.556 58.8979,13.155 C60.6779,16.755 60.9489,20.834 59.6599,24.639 C59.6169,24.765 59.5259,24.869 59.4079,24.927 C59.3379,24.961 59.2619,24.979 59.1859,24.979" id="Fill-9" fill="#55B0E6"></path>
            <path d="M50.0755,5.0498 C49.9235,5.0498 49.7715,5.0848 49.6325,5.1538 C49.3945,5.2708 49.2135,5.4788 49.1285,5.7298 L48.6565,7.1258 C48.4795,7.6488 48.7605,8.2168 49.2835,8.3928 C52.3385,9.4268 54.8055,11.5868 56.2335,14.4738 C57.6615,17.3618 57.8775,20.6328 56.8445,23.6848 C56.6665,24.2078 56.9465,24.7758 57.4705,24.9528 L58.8645,25.4258 C58.9695,25.4618 59.0775,25.4788 59.1855,25.4788 C59.3385,25.4788 59.4895,25.4448 59.6285,25.3758 C59.8665,25.2578 60.0485,25.0508 60.1335,24.7998 C61.4645,20.8678 61.1845,16.6538 59.3465,12.9338 C57.5085,9.2158 54.3295,6.4338 50.3965,5.1028 C50.2925,5.0678 50.1835,5.0498 50.0755,5.0498 M50.0755,6.0498 C53.7575,7.2958 56.7295,9.8978 58.4495,13.3768 C60.1705,16.8568 60.4315,20.7998 59.1855,24.4788 L57.7905,24.0058 C58.9105,20.6998 58.6765,17.1578 57.1305,14.0308 C55.5845,10.9028 52.9095,8.5648 49.6035,7.4458 L50.0755,6.0498" id="Fill-11" fill="#55B0E6"></path>
            <path d="M64.2357,26.6861 C64.1817,26.6861 64.1277,26.6771 64.0757,26.6601 L62.6807,26.1871 C62.4197,26.0991 62.2787,25.8151 62.3677,25.5541 C65.5277,16.2071 60.4957,6.0311 51.1507,2.8701 C50.8887,2.7811 50.7487,2.4981 50.8377,2.2361 L51.3087,0.8401 C51.3507,0.7141 51.4417,0.6111 51.5607,0.5521 C51.6307,0.5181 51.7067,0.5001 51.7827,0.5001 C51.8367,0.5001 51.8907,0.5091 51.9427,0.5261 C62.5787,4.1241 68.3057,15.7071 64.7097,26.3461 C64.6677,26.4721 64.5767,26.5761 64.4577,26.6341 C64.3877,26.6681 64.3117,26.6861 64.2357,26.6861" id="Fill-13" fill="#55B0E6"></path>
            <g id="Group-17" transform="translate(50.000000, 0.000300)">
                <mask id="mask-2" fill="white">
                    <use xlink:href="#path-1"></use>
                </mask>
                <g id="Clip-16"></g>
                <path d="M1.7825,-0.0003 C1.6305,-0.0003 1.4785,0.0347 1.3395,0.1037 C1.1015,0.2207 0.9205,0.4277 0.8355,0.6797 L0.3635,2.0757 C0.1865,2.5987 0.4675,3.1667 0.9905,3.3427 C10.0745,6.4157 14.9655,16.3077 11.8935,25.3937 C11.7175,25.9167 11.9975,26.4837 12.5195,26.6607 L13.9155,27.1327 C14.0195,27.1677 14.1285,27.1857 14.2355,27.1857 C14.3875,27.1857 14.5405,27.1507 14.6785,27.0827 C14.9175,26.9647 15.0975,26.7567 15.1825,26.5057 C18.8675,15.6057 13.0005,3.7387 2.1025,0.0527 C1.9995,0.0177 1.8905,-0.0003 1.7825,-0.0003 M1.7825,0.9997 C12.1585,4.5097 17.7435,15.8077 14.2355,26.1857 L12.8415,25.7137 C16.0905,16.1037 10.9165,5.6447 1.3105,2.3957 L1.7825,0.9997" id="Fill-15" fill="#55B0E6" mask="url(#mask-2)"></path>
            </g>
            <path d="M19.5692,27.8218 C19.6002,27.9798 19.6522,28.1798 19.7422,28.4258 C19.8432,28.7018 19.9462,28.9138 20.0382,29.0728 L46.0852,25.9718 C45.8742,23.6528 45.3612,21.3618 44.5562,19.1548 C43.8052,17.0998 42.8072,15.1418 41.5852,13.3298 L19.5692,27.8218 Z M30.5002,30.3178 C30.5362,30.3998 30.5822,30.4798 30.6392,30.5588 L30.9732,30.2618 L30.5002,30.3178 Z M35.2902,30.9808 L35.3662,30.9718 C35.4642,30.9598 35.5732,30.9328 35.6902,30.8928 C36.2602,30.6838 36.7512,30.1248 36.8562,29.5618 L34.1572,29.8838 L35.2902,30.9808 Z M16.1712,88.4558 L21.2802,75.1578 C21.3942,74.8588 21.4472,74.5188 21.4272,74.2028 L20.7892,67.8668 C20.7662,67.6388 20.9022,67.4238 21.1182,67.3468 C21.1732,67.3268 21.2312,67.3178 21.2872,67.3178 C21.3992,67.3178 21.5082,67.3558 21.5962,67.4248 L18.7392,63.1268 C18.6662,63.0168 18.6392,62.8818 18.6652,62.7518 C18.6922,62.6208 18.7692,62.5068 18.8792,62.4338 L20.1082,61.6198 C20.1922,61.5648 20.2882,61.5368 20.3832,61.5368 C20.5452,61.5368 20.7042,61.6148 20.8002,61.7608 L28.5372,73.4048 C28.6042,73.5058 28.6322,73.6278 28.6162,73.7478 L26.8672,86.8468 L31.3982,87.4518 L33.2862,73.3338 C33.3582,72.7938 33.2322,72.2398 32.9312,71.7758 L23.3952,56.9438 C23.3732,56.9088 23.3552,56.8718 23.3422,56.8328 C23.2742,56.6618 19.9022,48.4898 18.0332,43.9628 L13.5972,43.3378 C13.4652,43.3198 13.3472,43.2488 13.2672,43.1428 C13.1872,43.0368 13.1532,42.9038 13.1722,42.7718 L13.3812,41.3158 C13.4002,41.1838 13.4702,41.0658 13.5762,40.9858 C13.6632,40.9208 13.7682,40.8858 13.8762,40.8858 C13.8992,40.8858 13.9232,40.8878 13.9472,40.8908 L24.7012,42.4358 C24.7722,42.4468 24.8452,42.4508 24.9192,42.4508 C25.3272,42.4508 25.7322,42.2958 26.0012,42.0338 L33.9772,33.1578 L32.7632,31.9828 L32.3812,32.3228 C32.3552,32.3718 32.3202,32.4158 32.2772,32.4528 L24.4892,39.0448 C24.3982,39.1218 24.2832,39.1628 24.1662,39.1628 C24.1402,39.1628 24.1152,39.1608 24.0902,39.1568 L13.0182,37.4608 C12.7772,37.4248 12.5372,37.4058 12.3002,37.4058 C11.7322,37.4058 11.1842,37.5138 10.6702,37.7278 C8.4312,38.6588 7.3652,41.2388 8.2942,43.4778 C8.3612,43.6408 15.1082,59.8598 15.2222,60.1238 C15.2422,60.1688 15.2562,60.2198 15.2612,60.2688 L16.8232,73.8468 C16.8322,73.9258 16.8212,74.0058 16.7932,74.0788 L11.9022,86.8188 L16.1712,88.4558 Z M17.3042,91.4998 C17.2442,91.4998 17.1842,91.4888 17.1252,91.4668 L9.1722,88.4168 C9.0482,88.3688 8.9482,88.2748 8.8942,88.1538 C8.8402,88.0318 8.8372,87.8948 8.8842,87.7718 L14.3102,73.6358 L12.9642,61.1238 C12.7772,60.6818 11.7602,58.2458 6.0102,44.4228 C4.5612,40.9228 6.2262,36.8928 9.7222,35.4388 C10.5332,35.1018 11.4122,34.9308 12.3352,34.9308 C12.4352,34.9308 12.5352,34.9328 12.6352,34.9378 L23.5812,36.5718 L28.7642,32.1828 C28.5492,31.9138 28.3702,31.6188 28.2302,31.3018 L27.9372,30.6228 L19.3462,31.6448 C19.3262,31.6468 19.3062,31.6478 19.2872,31.6478 C19.1772,31.6478 19.0692,31.6118 18.9812,31.5438 L18.7442,31.3608 C18.5632,31.2218 17.9282,30.6578 17.4202,29.2748 C16.9072,27.8748 17.0572,27.0718 17.1462,26.7918 L17.2222,26.5438 C17.2562,26.4328 17.3282,26.3378 17.4252,26.2738 L41.8082,10.2258 C41.8922,10.1698 41.9872,10.1428 42.0822,10.1428 C42.2362,10.1428 42.3872,10.2138 42.4852,10.3458 L42.9002,10.9068 C44.5712,13.1698 45.9102,15.6598 46.8782,18.3098 C47.9032,21.1228 48.4942,24.0478 48.6342,27.0038 L48.6672,27.6878 C48.6802,27.9498 48.4882,28.1768 48.2282,28.2088 L39.4152,29.2598 L39.2992,29.9538 C39.0972,31.1548 38.2762,32.2778 37.1782,32.9148 C37.2332,33.0808 37.1992,33.2698 37.0752,33.4078 L27.7832,43.7428 C27.0082,44.5008 25.9742,44.9218 24.9232,44.9218 C24.7332,44.9218 24.5412,44.9088 24.3512,44.8818 L20.8762,44.3828 L25.5902,55.7228 C25.7322,55.9528 31.8172,65.4498 35.0102,70.4318 C35.6312,71.3848 35.8912,72.5308 35.7382,73.6568 L33.5902,89.7308 C33.5572,89.9818 33.3422,90.1638 33.0952,90.1638 C33.0732,90.1638 33.0512,90.1628 33.0282,90.1588 L24.5842,89.0308 C24.4532,89.0148 24.3342,88.9458 24.2532,88.8398 C24.1732,88.7348 24.1372,88.6018 24.1552,88.4698 L26.0702,74.1558 L23.5122,70.3078 C23.5202,70.3348 23.5252,70.3638 23.5282,70.3938 L23.8842,74.0018 C23.9322,74.6948 23.8282,75.3948 23.5842,76.0418 L17.7712,91.1798 C17.6942,91.3778 17.5052,91.4998 17.3042,91.4998 L17.3042,91.4998 Z" id="Fill-18" fill="#55B0E6"></path>
            <path d="M24.1658,39.6631 C24.4008,39.6631 24.6298,39.5801 24.8118,39.4261 L32.5998,32.8341 C32.6578,32.7851 32.7098,32.7301 32.7548,32.6701 L33.2828,33.1821 L25.6328,41.6941 C25.4568,41.8531 25.1868,41.9511 24.9188,41.9511 C24.8688,41.9511 24.8178,41.9481 24.7678,41.9401 L14.0178,40.3961 C13.9708,40.3891 13.9228,40.3861 13.8758,40.3861 C13.6608,40.3861 13.4508,40.4551 13.2758,40.5851 C13.0638,40.7451 12.9238,40.9811 12.8858,41.2441 L12.6768,42.7011 C12.6398,42.9641 12.7078,43.2311 12.8668,43.4431 C13.0268,43.6561 13.2648,43.7961 13.5268,43.8331 L17.6798,44.4181 C19.5588,48.9691 22.7918,56.8041 22.8848,57.0381 C22.9108,57.1151 22.9308,57.1451 22.9748,57.2141 L32.5098,72.0451 C32.7478,72.4121 32.8468,72.8461 32.7908,73.2671 L30.9678,86.8911 L27.4298,86.4171 L29.1118,73.8141 C29.1438,73.5741 29.0878,73.3301 28.9538,73.1291 L21.2168,61.4831 C21.0238,61.1931 20.7068,61.0371 20.3828,61.0371 C20.1928,61.0371 20.0008,61.0911 19.8318,61.2031 L18.6038,62.0171 C18.3818,62.1641 18.2288,62.3921 18.1758,62.6531 C18.1228,62.9131 18.1758,63.1841 18.3228,63.4041 L20.7128,66.9981 C20.4218,67.2021 20.2548,67.5511 20.2918,67.9171 L20.9318,74.2721 C20.9438,74.4791 20.9018,74.7461 20.8118,74.9811 L15.8838,87.8101 L12.5488,86.5301 L17.2598,74.2591 C17.3158,74.1101 17.3368,73.9501 17.3198,73.7931 L17.3008,73.6171 L15.7578,60.2121 C15.7468,60.1111 15.7198,60.0141 15.6798,59.9221 C15.5318,59.5751 11.0918,48.9021 8.7548,43.2851 C7.9328,41.3011 8.8778,39.0151 10.8618,38.1891 C11.3148,38.0011 11.7988,37.9061 12.3008,37.9061 C12.5098,37.9061 12.7268,37.9221 12.9428,37.9551 L24.0148,39.6511 C24.0648,39.6591 24.1158,39.6631 24.1658,39.6631 L24.1658,39.6631 Z M35.2598,30.2561 L35.9218,30.1771 C35.7958,30.2851 35.6548,30.3731 35.5068,30.4271 C35.4908,30.4331 35.4728,30.4381 35.4548,30.4441 L35.2598,30.2561 Z M20.1408,28.0431 L41.4438,14.0221 C42.5188,15.6851 43.4068,17.4651 44.0858,19.3271 C44.8198,21.3381 45.3068,23.4221 45.5388,25.5331 L29.0458,27.4961 L20.3258,28.5351 C20.2888,28.4521 20.2498,28.3581 20.2118,28.2531 C20.1848,28.1781 20.1608,28.1081 20.1408,28.0431 L20.1408,28.0431 Z M42.0828,9.6431 C41.8928,9.6431 41.7028,9.6961 41.5338,9.8081 L17.1498,25.8551 C16.9558,25.9831 16.8118,26.1751 16.7438,26.3971 L16.6668,26.6491 C16.5408,27.0501 16.4058,27.9581 16.9498,29.4451 C17.4908,30.9171 18.1738,31.5541 18.4418,31.7591 L18.6758,31.9391 C18.8518,32.0751 19.0668,32.1481 19.2868,32.1481 C19.3258,32.1481 19.3658,32.1451 19.4048,32.1411 L27.6258,31.1631 L27.7698,31.4961 C27.8618,31.7061 27.9698,31.9071 28.0908,32.0991 L23.4318,36.0441 L12.7628,34.4481 C12.7278,34.4431 12.6908,34.4391 12.6558,34.4381 C12.5488,34.4341 12.4418,34.4311 12.3358,34.4311 C11.3468,34.4311 10.4028,34.6151 9.5308,34.9771 C5.7798,36.5371 3.9938,40.8591 5.5478,44.6141 C10.9928,57.7031 12.1968,60.5911 12.4738,61.2481 L13.8008,73.5691 L8.4168,87.5921 C8.3218,87.8391 8.3298,88.1141 8.4368,88.3561 C8.5448,88.6001 8.7448,88.7891 8.9928,88.8841 L16.9458,91.9341 C17.0628,91.9781 17.1848,92.0001 17.3038,92.0001 C17.7058,92.0001 18.0848,91.7561 18.2368,91.3581 L24.0488,76.2251 C24.3208,75.5051 24.4358,74.7321 24.3848,73.9821 L24.2158,72.2691 L25.5498,74.2761 L23.6598,88.4031 C23.6238,88.6661 23.6948,88.9331 23.8558,89.1431 C24.0178,89.3531 24.2558,89.4921 24.5188,89.5271 L32.9618,90.6551 C33.0068,90.6611 33.0518,90.6641 33.0958,90.6641 C33.5898,90.6641 34.0188,90.2991 34.0858,89.7971 L36.2348,73.7241 C36.4018,72.4781 36.1148,71.2111 35.4268,70.1551 C32.9428,66.2801 26.5378,56.2841 26.0178,55.4531 L21.6748,45.0011 L24.2808,45.3761 C24.4918,45.4061 24.7078,45.4221 24.9238,45.4221 C26.1028,45.4221 27.2648,44.9491 28.1098,44.1231 C28.1258,44.1081 28.1408,44.0931 28.1558,44.0771 L37.4478,33.7421 C37.5918,33.5801 37.6758,33.3841 37.6978,33.1831 C38.7928,32.4551 39.5788,31.3031 39.7918,30.0371 L39.8458,29.7121 L48.2868,28.7051 C48.8078,28.6421 49.1918,28.1881 49.1658,27.6641 L49.1338,26.9791 C48.9918,23.9741 48.3908,20.9991 47.3478,18.1391 C46.3648,15.4451 45.0028,12.9131 43.3018,10.6101 L42.8868,10.0481 C42.6918,9.7841 42.3888,9.6431 42.0828,9.6431 L42.0828,9.6431 Z M30.6098,31.2561 L32.4908,29.5781 L29.7738,29.9011 L30.0408,30.5151 C30.1598,30.7901 30.3598,31.0421 30.6098,31.2561 L30.6098,31.2561 Z M35.1148,31.5071 L35.4278,31.4681 C35.5618,31.4511 35.7038,31.4171 35.8518,31.3661 C36.6098,31.0881 37.2268,30.3711 37.3528,29.6251 L37.4598,28.9871 L33.0538,29.5111 L35.1148,31.5071 L35.1148,31.5071 Z M19.7878,29.6061 L29.1638,28.4891 L46.6228,26.4111 C46.4388,23.8871 45.9038,21.3911 45.0258,18.9841 C44.2028,16.7301 43.0908,14.6001 41.7198,12.6431 L19.0328,27.5761 C19.0458,27.7791 19.0968,28.1161 19.2728,28.5971 C19.4578,29.1031 19.6548,29.4241 19.7878,29.6061 L19.7878,29.6061 Z M42.0828,10.6431 L42.4978,11.2041 C44.1408,13.4281 45.4568,15.8751 46.4088,18.4811 C47.4158,21.2461 47.9978,24.1211 48.1348,27.0271 L48.1678,27.7121 L38.9838,28.8081 L38.8058,29.8711 C38.5948,31.1231 37.6258,32.2721 36.3798,32.7431 L36.7038,33.0731 L27.4118,43.4081 C26.7418,44.0611 25.8428,44.4221 24.9238,44.4221 C24.7568,44.4221 24.5898,44.4101 24.4228,44.3861 L20.0768,43.7621 L25.1278,55.9151 C25.1498,55.9761 34.5888,70.7011 34.5888,70.7011 C35.1458,71.5561 35.3788,72.5831 35.2438,73.5911 L33.0948,89.6641 L24.6508,88.5361 L26.5908,74.0361 L22.8138,68.3531 L22.7988,68.3321 L22.0848,67.2561 L19.1558,62.8501 L20.3838,62.0371 L28.1208,73.6821 L26.3058,87.2761 L31.8268,88.0141 L33.7818,73.4001 C33.8698,72.7401 33.7178,72.0701 33.3508,71.5041 L23.8158,56.6731 C23.7948,56.6111 18.3858,43.5081 18.3858,43.5081 L13.6668,42.8431 L13.8758,41.3861 L24.6298,42.9311 C24.7268,42.9441 24.8228,42.9511 24.9188,42.9511 C25.4618,42.9511 25.9888,42.7431 26.3488,42.3931 L34.6708,33.1341 L32.7778,31.3001 L31.9278,32.0571 L31.9538,32.0711 L24.1658,38.6631 L13.0938,36.9671 C12.8258,36.9261 12.5618,36.9061 12.3008,36.9061 C11.6668,36.9061 11.0558,37.0261 10.4778,37.2661 C7.9848,38.3031 6.7978,41.1751 7.8318,43.6691 C7.8318,43.6691 14.7458,60.2921 14.7648,60.3261 L16.3068,73.7241 L16.3258,73.9001 L11.2568,87.1061 L16.4588,89.1011 L21.7468,75.3381 C21.8898,74.9631 21.9498,74.5511 21.9268,74.1721 L21.2868,67.8171 L23.0308,70.4421 L23.3868,74.0511 C23.4288,74.6661 23.3318,75.2931 23.1158,75.8661 L17.3038,91.0001 L9.3508,87.9501 L14.8208,73.7021 L13.4528,60.9991 C13.4198,60.9341 6.4718,44.2311 6.4718,44.2311 C5.1278,40.9851 6.6718,37.2491 9.9138,35.9011 C10.6728,35.5861 11.4988,35.4311 12.3358,35.4311 C12.4288,35.4311 12.5218,35.4331 12.6148,35.4371 L23.7318,37.1001 L29.4838,32.2291 C29.1388,31.9011 28.8708,31.5151 28.6878,31.1001 L28.2488,30.0821 L19.2868,31.1481 L19.0498,30.9651 C18.9388,30.8801 18.3628,30.3901 17.8888,29.1021 C17.4178,27.8141 17.5658,27.1231 17.6228,26.9421 L17.6998,26.6911 L42.0828,10.6431 L42.0828,10.6431 Z" id="Fill-20" fill="#55B0E6"></path>
        </g>
    </g>
</svg>