<?xml version="1.0" encoding="UTF-8"?>
<svg width="90px" height="90px" viewBox="0 0 90 90" version="1.1" xmlns="http://www.w3.org/2000/svg" xmlns:xlink="http://www.w3.org/1999/xlink">
    <!-- Generator: Sketch 41.1 (35376) - http://www.bohemiancoding.com/sketch -->
    <title>Fill 1</title>
    <desc>Created with Sketch.</desc>
    <defs></defs>
    <g id="Page-1" stroke="none" stroke-width="1" fill="none" fill-rule="evenodd">
        <g id="Fill-1" fill="#55B0E6">
            <path d="M90,58.8578 L90,85.9098 C90,88.1458 88.145,89.9998 85.909,89.9998 C83.618,89.9998 81.818,88.1458 81.818,85.9098 L81.818,70.4208 C80.563,70.8568 79.145,71.1288 77.727,71.1288 L12.273,71.1288 C10.855,71.1288 9.437,70.9118 8.182,70.4208 L8.182,85.9098 C8.182,88.1458 6.327,89.9998 4.091,89.9998 C1.8,89.9998 0,88.1458 0,85.9098 L0,58.8578 L0,55.0398 C0,48.2758 5.455,42.7688 12.273,42.7688 L18.818,42.7688 L18.818,37.9698 C18.818,32.1328 22.909,27.2788 28.363,26.0248 L28.418,26.0248 L37.363,15.7168 C41.618,10.8628 47.727,8.0828 54.218,8.0828 L65.4,8.0828 C66.764,8.0828 68.127,7.5908 69.218,6.7738 L76.854,0.8828 C78.599,-0.5352 81.163,-0.2072 82.581,1.5918 C83.945,3.3928 83.617,5.9558 81.817,7.3188 L74.235,13.2098 C71.726,15.1718 68.617,16.2638 65.399,16.2638 L54.218,16.2638 C50.127,16.2638 46.2,18.0078 43.527,21.1178 L39.545,25.6988 L49.909,25.6988 L55.091,22.1528 C57,20.8448 59.509,21.3358 60.818,23.2448 C62.073,25.0988 61.582,27.6078 59.727,28.9168 L53.454,33.1708 L49.69,35.7328 C49.145,36.1158 48.872,36.6608 48.872,37.2608 L49.199,38.2958 L49.308,38.4608 C49.635,39.0048 50.235,39.2778 50.835,39.2778 L51.926,38.9518 L65.453,29.7338 C68.398,27.7158 71.835,26.6258 75.326,26.5708 C77.181,26.5708 78.926,26.0258 80.453,25.0448 L83.671,23.0258 C85.58,21.7728 88.144,22.3728 89.344,24.2808 C90.544,26.1888 89.999,28.6988 88.089,29.8988 L84.816,31.9708 C82.034,33.7148 78.816,34.6978 75.489,34.7518 C73.907,34.8068 72.38,35.1878 71.071,35.9518 L71.071,42.7688 L77.726,42.7688 C84.49,42.7688 89.944,48.2758 89.944,55.0398 L89.944,58.4748 C90,58.5858 90,58.7488 90,58.8578 M81.818,58.8578 L81.818,55.0398 C81.763,52.7488 79.963,50.9498 77.727,50.9498 L71.072,50.9498 L71.072,52.8578 L72.981,52.8578 C75.217,52.8578 77.072,54.6588 77.072,56.9488 C77.072,59.1838 75.217,61.0388 72.981,61.0388 L66.981,61.0388 L22.909,61.0388 L16.636,61.0388 C14.345,61.0388 12.545,59.1838 12.545,56.9488 C12.545,54.6578 14.345,52.8578 16.636,52.8578 L18.818,52.8578 L18.818,50.9498 L12.273,50.9498 C9.982,50.9498 8.182,52.7498 8.128,55.0398 L8.128,58.4748 L8.128,58.6388 L8.128,58.8578 C8.128,59.0218 8.128,59.0758 8.183,59.2398 L8.183,59.2948 C8.401,61.3128 10.147,62.9488 12.274,62.9488 L77.729,62.9488 C79.963,62.9488 81.763,61.0928 81.818,58.8578 M50.836,47.4598 C47.618,47.4598 44.454,45.9328 42.491,43.0418 L42.382,42.8778 C41.237,41.1868 40.691,39.2238 40.691,37.2588 C40.691,36.1148 40.909,34.9688 41.291,33.8788 L31.091,33.8788 C28.855,33.8788 27,35.6788 27,37.9688 L27,52.8578 L62.891,52.8578 L62.891,46.8588 L62.891,41.4048 L56.509,45.7138 C54.818,46.9138 52.8,47.4598 50.836,47.4598"></path>
        </g>
    </g>
</svg>